<svg width="22" height="23" viewBox="0 0 22 23" fill="none" xmlns="http://www.w3.org/2000/svg">
<path d="M8.06956 9.60897L8.01888 9.71033L4.06567 2.86823C6.02538 1.2464 8.28919 0.43548 10.8571 0.43548C11.6342 0.43548 12.4282 0.519951 13.2392 0.68889L8.06956 9.60897ZM21.1963 7.98714H10.7557L14.7089 1.14503C16.2632 1.71943 17.6063 2.60637 18.7382 3.80585C19.8701 5.00533 20.6894 6.39909 21.1963 7.98714ZM21.4497 9.05146C21.6186 9.7948 21.7031 10.5212 21.7031 11.2308C21.7031 14.0352 20.7401 16.468 18.8142 18.529L13.6953 9.60897L13.3912 9.05146H21.4497ZM7.15728 11.2308L8.37366 13.4101H0.264497C0.129344 12.6668 0.0617676 11.9404 0.0617676 11.2308C0.0617676 8.46017 1.00784 6.02742 2.89997 3.93256L7.15728 11.2308ZM0.56859 14.4745H11.0091L7.05592 21.3166C5.50166 20.7422 4.15858 19.8552 3.02668 18.6558C1.89478 17.4563 1.07541 16.0625 0.56859 14.4745ZM12.7323 14.4745L13.746 12.7513L17.6992 19.5934C15.7057 21.2152 13.425 22.0261 10.8571 22.0261C10.1137 22.0261 9.33662 21.9417 8.52571 21.7727L12.7323 14.4745Z" fill="#0059BC"/>
</svg>
