<svg width="25" height="20" viewBox="0 0 25 20" fill="none" xmlns="http://www.w3.org/2000/svg">
<path d="M12.3564 3.19097L14.485 5.92781H10.177L12.3564 3.19097ZM18.8437 8.05647L21.5299 10.2358L18.8437 12.4151V8.05647ZM5.86905 8.05647V12.4151L3.1322 10.2358L5.86905 8.05647ZM14.485 14.5438L12.3564 17.2806L10.177 14.5438H14.485ZM22.0874 0.504808C22.6618 0.504808 23.1601 0.715984 23.5825 1.13834C24.0049 1.56069 24.216 2.07596 24.216 2.68414V17.7875C24.216 18.3956 24.0049 18.9109 23.5825 19.3333C23.1601 19.7556 22.6618 19.9668 22.0874 19.9668H2.62538C2.01719 19.9668 1.50193 19.7556 1.07957 19.3333C0.657221 18.9109 0.446045 18.3956 0.446045 17.7875V2.68414C0.446045 2.07596 0.657221 1.56069 1.07957 1.13834C1.50193 0.715984 2.01719 0.504808 2.62538 0.504808H22.0874ZM22.0874 17.8381V2.63346H2.62538V17.8381H22.0874Z" fill="#0059BC"/>
</svg>
