<svg width="14" height="15" viewBox="0 0 14 15" fill="none" xmlns="http://www.w3.org/2000/svg">
<path id="Vector" d="M8.49574 9.11586C8.49574 9.11586 8.60734 9.00425 8.83056 8.78104C9.05377 8.55783 9.16538 8.13074 9.16538 7.49979C9.16538 6.86884 8.94217 6.33015 8.49574 5.88372C8.04931 5.43729 7.51062 5.21408 6.87967 5.21408C6.24871 5.21408 5.71002 5.43729 5.26359 5.88372C4.81717 6.33015 4.59395 6.86884 4.59395 7.49979C4.59395 8.13074 4.81717 8.66943 5.26359 9.11586C5.71002 9.56229 6.24871 9.7855 6.87967 9.7855C7.51062 9.7855 8.04931 9.56229 8.49574 9.11586ZM9.37074 5.00872C9.37074 5.00872 9.54187 5.17985 9.88413 5.52211C10.2264 5.86437 10.3975 6.5236 10.3975 7.49979C10.3975 8.47598 10.0553 9.30634 9.37074 9.99086C8.68621 10.6754 7.85586 11.0176 6.87967 11.0176C5.90347 11.0176 5.07312 10.6754 4.38859 9.99086C3.70407 9.30634 3.36181 8.47598 3.36181 7.49979C3.36181 6.5236 3.70407 5.69324 4.38859 5.00872C5.07312 4.3242 5.90347 3.98193 6.87967 3.98193C7.85586 3.98193 8.68621 4.3242 9.37074 5.00872ZM11.1207 3.25872C11.1207 3.25872 11.1609 3.2989 11.2413 3.37925C11.3216 3.45961 11.3618 3.61289 11.3618 3.83908C11.3618 4.06527 11.2815 4.25872 11.1207 4.41943C10.96 4.58015 10.7666 4.6605 10.5404 4.6605C10.3142 4.6605 10.1207 4.58015 9.96002 4.41943C9.79931 4.25872 9.71895 4.06527 9.71895 3.83908C9.71895 3.61289 9.79931 3.41943 9.96002 3.25872C10.1207 3.098 10.3142 3.01765 10.5404 3.01765C10.7666 3.01765 10.96 3.098 11.1207 3.25872ZM7.5627 1.87033C7.5627 1.87033 7.45928 1.87107 7.25243 1.87256C7.04559 1.87405 6.92133 1.87479 6.87967 1.87479C6.838 1.87479 6.61032 1.8733 6.19663 1.87033C5.78294 1.86735 5.46895 1.86735 5.25467 1.87033C5.04038 1.8733 4.75318 1.88223 4.39306 1.89711C4.03294 1.91199 3.72639 1.94175 3.47341 1.9864C3.22044 2.03104 3.00764 2.0861 2.83502 2.15158C2.5374 2.27062 2.2755 2.44324 2.04931 2.66943C1.82312 2.89562 1.6505 3.15753 1.53145 3.45515C1.46597 3.62777 1.41091 3.84056 1.36627 4.09354C1.32163 4.34652 1.29187 4.65306 1.27699 5.01318C1.26211 5.3733 1.25318 5.6605 1.2502 5.87479C1.24722 6.08908 1.24722 6.40306 1.2502 6.81675C1.25318 7.23045 1.25466 7.45812 1.25466 7.49979C1.25466 7.54146 1.25318 7.76914 1.2502 8.18283C1.24722 8.59652 1.24722 8.9105 1.2502 9.12479C1.25318 9.33908 1.26211 9.62628 1.27699 9.9864C1.29187 10.3465 1.32163 10.6531 1.36627 10.906C1.41091 11.159 1.46597 11.3718 1.53145 11.5444C1.6505 11.8421 1.82312 12.104 2.04931 12.3301C2.2755 12.5563 2.5374 12.729 2.83502 12.848C3.00764 12.9135 3.22044 12.9685 3.47341 13.0132C3.72639 13.0578 4.03294 13.0876 4.39306 13.1025C4.75318 13.1174 5.04038 13.1263 5.25467 13.1293C5.46895 13.1322 5.78294 13.1322 6.19663 13.1293C6.61032 13.1263 6.838 13.1248 6.87967 13.1248C6.92133 13.1248 7.14901 13.1263 7.5627 13.1293C7.97639 13.1322 8.29038 13.1322 8.50467 13.1293C8.71895 13.1263 9.00615 13.1174 9.36627 13.1025C9.72639 13.0876 10.0329 13.0578 10.2859 13.0132C10.5389 12.9685 10.7517 12.9135 10.9243 12.848C11.2219 12.729 11.4838 12.5563 11.71 12.3301C11.9362 12.104 12.1088 11.8421 12.2279 11.5444C12.2934 11.3718 12.3484 11.159 12.3931 10.906C12.4377 10.6531 12.4675 10.3465 12.4823 9.9864C12.4972 9.62628 12.5062 9.33908 12.5091 9.12479C12.5121 8.9105 12.5121 8.59652 12.5091 8.18283C12.5062 7.76914 12.5047 7.54146 12.5047 7.49979C12.5047 7.45812 12.5062 7.23045 12.5091 6.81675C12.5121 6.40306 12.5121 6.08908 12.5091 5.87479C12.5062 5.6605 12.4972 5.3733 12.4823 5.01318C12.4675 4.65306 12.4377 4.34652 12.3931 4.09354C12.3484 3.84056 12.2934 3.62777 12.2279 3.45515C12.1088 3.15753 11.9362 2.89562 11.71 2.66943C11.4838 2.44324 11.2219 2.27062 10.9243 2.15158C10.7517 2.0861 10.5389 2.03104 10.2859 1.9864C10.0329 1.94175 9.72639 1.91199 9.36627 1.89711C9.00615 1.88223 8.71895 1.8733 8.50467 1.87033C8.29038 1.86735 7.97639 1.86735 7.5627 1.87033ZM13.6922 4.66943C13.7219 5.19324 13.7368 6.1367 13.7368 7.49979C13.7368 8.86289 13.7219 9.80634 13.6922 10.3301C13.6326 11.5682 13.2636 12.5266 12.585 13.2051C11.9065 13.8837 10.9481 14.2528 9.71002 14.3123C9.18621 14.3421 8.24276 14.3569 6.87967 14.3569C5.51657 14.3569 4.57312 14.3421 4.04931 14.3123C2.81121 14.2528 1.85288 13.8837 1.17431 13.2051C0.495736 12.5266 0.126689 11.5682 0.0671648 10.3301C0.0374029 9.80634 0.022522 8.86289 0.022522 7.49979C0.022522 6.1367 0.0374029 5.19324 0.0671648 4.66943C0.126689 3.43134 0.495736 2.473 1.17431 1.79443C1.85288 1.11586 2.81121 0.746814 4.04931 0.68729C4.57312 0.657528 5.51657 0.642647 6.87967 0.642647C8.24276 0.642647 9.18621 0.657528 9.71002 0.68729C10.9481 0.746814 11.9065 1.11586 12.585 1.79443C13.2636 2.473 13.6326 3.43134 13.6922 4.66943Z" fill="white"/>
</svg>
