<svg width="18" height="25" viewBox="0 0 18 25" fill="none" xmlns="http://www.w3.org/2000/svg">
<path d="M3.72731 4.67912V6.80778H1.54797V2.49979C1.54797 1.8916 1.75915 1.37633 2.1815 0.953979C2.60385 0.531626 3.11912 0.32045 3.72731 0.32045L14.5226 0.371132C15.1308 0.371132 15.6461 0.573862 16.0684 0.979321C16.4908 1.38478 16.702 1.8916 16.702 2.49979V6.80778H14.5226V4.67912H3.72731ZM12.7994 17.1976L11.279 15.6772L14.7254 12.2308L11.279 8.78439L12.7994 7.26392L17.7663 12.2308L12.7994 17.1976ZM6.97097 15.6772L5.4505 17.1976L0.483643 12.2308L5.4505 7.26392L6.97097 8.78439L3.52458 12.2308L6.97097 15.6772ZM14.5226 19.7824V17.6538H16.702V21.9618C16.702 22.57 16.4908 23.0852 16.0684 23.5076C15.6461 23.9299 15.1308 24.1411 14.5226 24.1411H3.72731C3.11912 24.1411 2.60385 23.9299 2.1815 23.5076C1.75915 23.0852 1.54797 22.57 1.54797 21.9618V17.6538H3.72731V19.7824H14.5226Z" fill="#0059BC"/>
</svg>
