<svg width="20" height="20" viewBox="0 0 20 20" fill="none" xmlns="http://www.w3.org/2000/svg">
<path d="M13.0135 6.99214V13.4795H6.52615V6.99214H13.0135ZM10.8341 11.3001V9.17148H8.70549V11.3001H10.8341ZM19.5008 9.17148H17.3215V11.3001H19.5008V13.4795H17.3215V15.6588C17.3215 16.2332 17.1103 16.7316 16.6879 17.1539C16.2656 17.5763 15.7672 17.7875 15.1928 17.7875H13.0135V19.9668H10.8341V17.7875H8.70549V19.9668H6.52615V17.7875H4.34681C3.77241 17.7875 3.27404 17.5763 2.85168 17.1539C2.42933 16.7316 2.21816 16.2332 2.21816 15.6588V13.4795H0.0388184V11.3001H2.21816V9.17148H0.0388184V6.99214H2.21816V4.8128C2.21816 4.2384 2.42933 3.74003 2.85168 3.31767C3.27404 2.89532 3.77241 2.68414 4.34681 2.68414H6.52615V0.504808H8.70549V2.68414H10.8341V0.504808H13.0135V2.68414H15.1928C15.7672 2.68414 16.2656 2.89532 16.6879 3.31767C17.1103 3.74003 17.3215 4.2384 17.3215 4.8128V6.99214H19.5008V9.17148ZM15.1928 15.6588V4.8128H4.34681V15.6588H15.1928Z" fill="#0059BC"/>
</svg>
