<svg width="12" height="23" viewBox="0 0 12 23" fill="none" xmlns="http://www.w3.org/2000/svg">
<path d="M9.8042 2.56914C10.2097 2.56914 10.5475 2.71274 10.8178 2.99994C11.0881 3.28714 11.2233 3.63347 11.2233 4.03893V20.612C11.2233 21.0175 11.0881 21.3554 10.8178 21.6257C10.5475 21.896 10.2097 22.0311 9.8042 22.0311H1.84708C1.47541 22.0311 1.14598 21.896 0.858778 21.6257C0.571578 21.3554 0.427979 21.0175 0.427979 20.612V4.03893C0.427979 3.63347 0.571578 3.28714 0.858778 2.99994C1.14598 2.71274 1.47541 2.56914 1.84708 2.56914H3.67164V0.440485H7.97964V2.56914H9.8042Z" fill="#0059BC"/>
</svg>
