<svg width="16" height="13" viewBox="0 0 16 13" fill="none" xmlns="http://www.w3.org/2000/svg">
<path d="M13.5415 0.353516H2.78513C2.17382 0.353516 1.58755 0.596356 1.15529 1.02861C0.723034 1.46087 0.480194 2.04714 0.480194 2.65845V10.3416C0.480194 10.9529 0.723034 11.5391 1.15529 11.9714C1.58755 12.4036 2.17382 12.6465 2.78513 12.6465H13.5415C14.1528 12.6465 14.739 12.4036 15.1713 11.9714C15.6036 11.5391 15.8464 10.9529 15.8464 10.3416V2.65845C15.8464 2.04714 15.6036 1.46087 15.1713 1.02861C14.739 0.596356 14.1528 0.353516 13.5415 0.353516ZM2.78513 1.89014H13.5415C13.7452 1.89014 13.9407 1.97108 14.0848 2.11517C14.2288 2.25926 14.3098 2.45468 14.3098 2.65845L8.1633 6.4078L2.01682 2.65845C2.01682 2.45468 2.09776 2.25926 2.24185 2.11517C2.38593 1.97108 2.58136 1.89014 2.78513 1.89014ZM14.3098 10.3416C14.3098 10.5453 14.2288 10.7407 14.0848 10.8848C13.9407 11.0289 13.7452 11.1099 13.5415 11.1099H2.78513C2.58136 11.1099 2.38593 11.0289 2.24185 10.8848C2.09776 10.7407 2.01682 10.5453 2.01682 10.3416V4.41019L7.76378 7.92137C7.88058 7.98881 8.01307 8.02431 8.14793 8.02431C8.2828 8.02431 8.41529 7.98881 8.53209 7.92137L14.3098 4.41019V10.3416Z" fill="#0063D1"/>
</svg>
