<svg width="15" height="17" viewBox="0 0 15 17" fill="none" xmlns="http://www.w3.org/2000/svg">
<g clip-path="url(#clip0_27_24320)">
<path d="M3.56814 6.0805V14.9287H0.621715V6.0805H3.56814ZM3.75564 3.34835C3.7616 3.78288 3.6113 4.14597 3.30475 4.43764C2.9982 4.72931 2.59493 4.87514 2.09493 4.87514H2.07707C1.58898 4.87514 1.19612 4.72931 0.898501 4.43764C0.600882 4.14597 0.452072 3.78288 0.452072 3.34835C0.452072 2.90788 0.605346 2.54329 0.911894 2.2546C1.21844 1.96591 1.61874 1.82157 2.11279 1.82157C2.60683 1.82157 3.00267 1.96591 3.30029 2.2546C3.59791 2.54329 3.74969 2.90788 3.75564 3.34835ZM14.1664 9.85728V14.9287H11.2289V10.1966C11.2289 9.57157 11.1083 9.08198 10.8673 8.72782C10.6262 8.37365 10.2497 8.19657 9.73779 8.19657C9.36279 8.19657 9.0488 8.29925 8.79582 8.5046C8.54285 8.70996 8.35386 8.96443 8.22886 9.268C8.16338 9.44657 8.13064 9.68764 8.13064 9.99121V14.9287H5.19314C5.20505 12.5537 5.211 10.6281 5.211 9.15193C5.211 7.67573 5.20802 6.79478 5.20207 6.50907L5.19314 6.0805H8.13064V7.36621H8.11279C8.23183 7.17573 8.35386 7.00907 8.47886 6.86621C8.60386 6.72335 8.77201 6.56859 8.98332 6.40193C9.19463 6.23526 9.45356 6.10579 9.76011 6.01353C10.0667 5.92127 10.4074 5.87514 10.7824 5.87514C11.8003 5.87514 12.6187 6.21294 13.2378 6.88853C13.8568 7.56413 14.1664 8.55371 14.1664 9.85728Z" fill="white"/>
</g>
<defs>
<clipPath id="clip0_27_24320">
<rect width="13.72" height="16" fill="white" transform="matrix(1 0 0 -1 0.449219 16.5)"/>
</clipPath>
</defs>
</svg>
