<svg width="15" height="17" viewBox="0 0 15 17" fill="none" xmlns="http://www.w3.org/2000/svg">
<g clip-path="url(#clip0_27_24312)">
<path d="M14.0724 4.14293C13.6736 4.72626 13.1915 5.22328 12.626 5.634C12.6319 5.71733 12.6349 5.84233 12.6349 6.009C12.6349 6.78281 12.5218 7.55513 12.2956 8.32596C12.0694 9.0968 11.7257 9.83638 11.2644 10.5447C10.8031 11.253 10.254 11.8795 9.61705 12.4242C8.98014 12.9688 8.21229 13.4033 7.31348 13.7277C6.41467 14.0522 5.45336 14.2144 4.42955 14.2144C2.81645 14.2144 1.34026 13.7828 0.000976562 12.9197C0.20931 12.9435 0.441453 12.9554 0.697405 12.9554C2.03669 12.9554 3.23014 12.5447 4.27776 11.7233C3.65276 11.7114 3.09324 11.5194 2.59919 11.1474C2.10514 10.7754 1.76586 10.3007 1.58133 9.72328C1.77776 9.75305 1.95931 9.76793 2.12598 9.76793C2.38193 9.76793 2.63491 9.73519 2.88491 9.66971C2.21824 9.53281 1.66616 9.20096 1.22866 8.67418C0.791155 8.14739 0.572405 7.53578 0.572405 6.83935V6.80364C0.977167 7.02983 1.41169 7.15185 1.87598 7.16971C1.48312 6.90781 1.17062 6.56555 0.938477 6.14293C0.706334 5.72031 0.590262 5.26197 0.590262 4.76793C0.590262 4.24412 0.721215 3.759 0.983119 3.31257C1.70336 4.19947 2.57985 4.9093 3.61258 5.44203C4.64532 5.97477 5.75098 6.2709 6.92955 6.33043C6.88193 6.10424 6.85812 5.884 6.85812 5.66971C6.85812 4.87209 7.13937 4.19203 7.70187 3.62953C8.26437 3.06703 8.94443 2.78578 9.74205 2.78578C10.5754 2.78578 11.2778 3.08935 11.8492 3.6965C12.498 3.5715 13.1081 3.33935 13.6795 3.00007C13.4593 3.68459 13.0367 4.21436 12.4117 4.58936C12.9653 4.52983 13.5188 4.38102 14.0724 4.14293Z" fill="white"/>
</g>
<defs>
<clipPath id="clip0_27_24312">
<rect width="14.86" height="16" fill="white" transform="matrix(1 0 0 -1 0 16.5)"/>
</clipPath>
</defs>
</svg>
